<svg xmlns="http://www.w3.org/2000/svg" width="44" height="44" viewBox="0 0 44 44">
    <g fill="none" fill-rule="evenodd">
        <circle cx="22.5" cy="22.5" r="20.5" fill="#FFF"/>
        <path fill="#4267B2" fill-rule="nonzero" d="M44 22C44 9.848 34.152 0 22 0S0 9.848 0 22s9.848 22 22 22c.129 0 .258 0 .387-.009V26.873H17.66v-5.509h4.727v-4.056c0-4.701 2.87-7.262 7.064-7.262 2.01 0 3.738.146 4.236.215v4.916H30.8c-2.277 0-2.724 1.082-2.724 2.672v3.506h5.457l-.713 5.51h-4.744v16.284C37.27 40.511 44 32.046 44 22z"/>
    </g>
</svg>
