<svg xmlns="http://www.w3.org/2000/svg" width="44" height="44" viewBox="0 0 44 44">
    <defs>
        <linearGradient id="prefix__a" x1="6.714%" x2="93.608%" y1="93.485%" y2="6.619%">
            <stop offset="0%" stop-color="#FD5"/>
            <stop offset="50%" stop-color="#FF543E"/>
            <stop offset="100%" stop-color="#C837AB"/>
        </linearGradient>
    </defs>
    <g fill="none" fill-rule="evenodd">
        <circle cx="23.5" cy="22.5" r="20.5" fill="#FFF"/>
        <path fill="url(#prefix__a)" fill-rule="nonzero" d="M22 0c12.148 0 22 9.852 22 22s-9.852 22-22 22S0 34.148 0 22 9.852 0 22 0zm1.187 9.368h-2.374c-2.37.004-2.848.022-4.021.075-1.345.062-2.263.275-3.067.588-.843.317-1.606.814-2.237 1.457-.643.63-1.14 1.394-1.458 2.237-.312.804-.526 1.722-.587 3.067-.053 1.173-.071 1.65-.075 4.021v2.374c.004 2.37.022 2.848.076 4.022.06 1.344.275 2.263.587 3.066.317.843.814 1.606 1.457 2.237.63.643 1.394 1.14 2.237 1.457.804.313 1.722.526 3.067.588 1.173.053 1.651.071 4.022.075h2.373c2.37-.004 2.848-.022 4.022-.075 1.344-.062 2.263-.275 3.066-.588 1.697-.656 3.038-1.997 3.694-3.694.313-.804.527-1.722.588-3.067.053-1.173.071-1.65.075-4.021v-2.374c-.004-2.37-.022-2.848-.075-4.021-.061-1.345-.275-2.263-.588-3.067-.316-.843-.814-1.606-1.456-2.237-.632-.643-1.395-1.14-2.238-1.458-.804-.312-1.722-.525-3.067-.586-1.173-.054-1.65-.072-4.021-.076zm-.26 2.276c2.535.003 2.979.019 4.178.073 1.232.056 1.9.262 2.345.435.55.203 1.045.525 1.453.945.42.408.742.904.945 1.453.173.445.379 1.114.435 2.345.055 1.2.07 1.643.073 4.179v1.853c-.003 2.536-.018 2.98-.073 4.178-.056 1.232-.262 1.9-.435 2.346-.425 1.101-1.296 1.972-2.398 2.397-.445.173-1.114.38-2.345.435-1.155.053-1.609.07-3.905.073h-2.4c-2.297-.003-2.75-.02-3.905-.073-1.232-.056-1.9-.262-2.346-.435-.549-.202-1.045-.525-1.452-.945-.42-.407-.742-.903-.945-1.452-.173-.445-.379-1.114-.435-2.346-.053-1.154-.07-1.609-.073-3.905v-2.4c.004-2.296.02-2.75.073-3.905.056-1.231.262-1.9.435-2.345.203-.55.525-1.045.945-1.453.407-.42.904-.742 1.453-.945.444-.173 1.113-.379 2.345-.435 1.199-.055 1.642-.07 4.178-.073zM22 15.514c-3.583 0-6.487 2.903-6.487 6.486 0 3.583 2.904 6.487 6.487 6.487s6.487-2.904 6.487-6.487-2.904-6.487-6.487-6.487zm0 2.275c2.326 0 4.21 1.885 4.21 4.211 0 2.326-1.884 4.21-4.21 4.21s-4.21-1.884-4.21-4.21 1.884-4.21 4.21-4.21zm6.743-4.048c-.837 0-1.516.678-1.516 1.516 0 .837.68 1.516 1.516 1.516.838 0 1.516-.68 1.516-1.516 0-.838-.678-1.516-1.516-1.516z"/>
    </g>
</svg>
