<svg xmlns="http://www.w3.org/2000/svg" width="44" height="44" viewBox="0 0 44 44">
	<g fill="none" fill-rule="evenodd">
		<circle cx="22" cy="22" r="22" fill="#000"/>
		<g transform="translate(11 8)">
			<path d="M55.192,21.472A12.012,12.012,0,0,0,62.2,23.713V18.688a7.1,7.1,0,0,1-1.471-.154v3.956a12.014,12.014,0,0,1-7.007-2.241V30.5a9.3,9.3,0,0,1-14.467,7.718,9.295,9.295,0,0,0,15.939-6.494V21.472Zm1.815-5.07a7,7,0,0,1-1.815-4.1v-.646H53.8a7.036,7.036,0,0,0,3.21,4.747ZM42.5,34.285a4.252,4.252,0,0,1,4.674-6.622V22.525A9.378,9.378,0,0,0,45.7,22.44v4a4.25,4.25,0,0,0-3.2,7.846Z" transform="translate(-35.133 -10.432)" fill="#ff004f"></path>
			<path class="fill-color-text" d="M31.134,20.248a12.014,12.014,0,0,0,7.007,2.241V18.534a7.034,7.034,0,0,1-3.72-2.132,7.036,7.036,0,0,1-3.21-4.747H27.548V31.727a4.252,4.252,0,0,1-7.635,2.558,4.251,4.251,0,0,1,3.2-7.845v-4a9.288,9.288,0,0,0-6.449,15.781A9.3,9.3,0,0,0,31.134,30.5V20.248Z" transform="translate(-12.547 -10.432)" fill="#fff"></path>
			<path d="M25.594,8.1V7.032a7.008,7.008,0,0,1-3.72-1.062A7.028,7.028,0,0,0,25.594,8.1Zm-6.93-6.879q-.05-.287-.077-.577V0H13.53V20.072a4.253,4.253,0,0,1-6.164,3.781A4.252,4.252,0,0,0,15,21.3V1.223Zm-8.1,10.785V10.87a9.388,9.388,0,0,0-1.275-.086A9.288,9.288,0,0,0,4.12,27.79a9.288,9.288,0,0,1,6.449-15.781Z" fill="#00f2ea"></path>
		</g>
	</g>
</svg>
